<?xml version="1.0" encoding="UTF-8"?>
<svg id="TASauria" xmlns="http://www.w3.org/2000/svg" xmlns:xlink="http://www.w3.org/1999/xlink" viewBox="0 0 128 128">
  <defs>
    <style>
      .cls-1 {
        fill: url(#_gradient_24);
      }

      .cls-1, .cls-2, .cls-3, .cls-4, .cls-5, .cls-6 {
        stroke-width: 0px;
      }

      .cls-2, .cls-7 {
        fill: #666;
      }

      .cls-8 {
        fill: #ccc;
      }

      .cls-8, .cls-9, .cls-10, .cls-11, .cls-7, .cls-12, .cls-13, .cls-14, .cls-15 {
        stroke-miterlimit: 10;
      }

      .cls-8, .cls-9, .cls-10, .cls-7, .cls-12, .cls-13, .cls-14, .cls-15 {
        stroke-width: .86px;
      }

      .cls-8, .cls-7, .cls-12, .cls-14 {
        stroke: #666;
      }

      .cls-4, .cls-11, .cls-14 {
        fill: none;
      }

      .cls-9 {
        fill: #ed1c24;
        stroke: #ed1c24;
      }

      .cls-9, .cls-10, .cls-11, .cls-12, .cls-13, .cls-14, .cls-15 {
        stroke-linecap: round;
      }

      .cls-16 {
        clip-path: url(#clippath-1);
      }

      .cls-5 {
        fill: #d49955;
      }

      .cls-10 {
        fill: #2e3192;
        stroke: #2e3192;
      }

      .cls-11 {
        stroke: #d15353;
        stroke-width: 1.05px;
      }

      .cls-6 {
        fill: #f2edc8;
      }

      .cls-17 {
        clip-path: url(#clippath);
      }

      .cls-12 {
        fill: #f2f2f2;
      }

      .cls-13 {
        fill: #fcee21;
        stroke: #fcee21;
      }

      .cls-15 {
        fill: #39b54a;
        stroke: #39b54a;
      }
    </style>
    <linearGradient id="_gradient_24" x1="67.27" y1="123.88" x2="67.27" y2="2" gradientUnits="userSpaceOnUse">
      <stop offset="0" stop-color="#ff981f"/>
      <stop offset="1" stop-color="#ffde57"/>
    </linearGradient>
    <clipPath id="clippath">
      <path id="Body-2" data-name="Body" class="cls-4" d="m77.12,96.35c-6.46-3.07-13.28-3.8-19.97-5.66-3.27-1.02-7.1-1.76-9.15-4.39-.1-.18-.14-.33-.16-.49.02-.05.07-.17.14-.32.13-.27.33-.62.56-.98,11.69-16.62,47.87-43.34,46.6-64.63-.48-9.11-8.92-14.55-16.86-16.22-5.16-1.21-10.02-1.54-14.79-1.66h0s-13.62,0-13.62,0c-2.89,0-5.24,2.35-5.24,5.24,0,5.21,4.22,9.43,9.43,9.43h9.42s.02,0,.03,0c4.14-.14,8.25-.04,11.83.6,2.47.41,5.34,1.31,6.54,2.86,1.87,4.71-4.19,13.56-7.1,17.96-8.68,12.5-19.97,23.85-29.56,35.94-2.79,3.89-7.26,8.8-5.43,14.25,3.19,8.77,14.64,9.44,22.34,11.01,3.84.83,13.43,1.7,15.09,5.24.05.21.1.44.07.74-.01.21.03.08.03.14.03.07-.48.49-1.25.76-3.65,1.17-8.4,1.07-12.45,1.26-3.47.15-7.06.18-10.55,1.15-1.47.45-2.89,1.05-3.96,2.42-2.27,2.81-.21,6.94,2.32,8.56,6.08,4.08,13.54,4.37,20.45,4.33,1.75-.06,1.74-2.67,0-2.72-4.72-.01-18.91-1.69-19.62-7.21.12-.59.9-.82,1.96-1.11,7.44-1.83,22.82,2.38,27.91-3.99,3.25-4.95-.35-10.45-5.01-12.5Z"/>
    </clipPath>
    <clipPath id="clippath-1">
      <path id="Mask" class="cls-4" d="m50.31,100.39l26.83,4.8c-.65,4.97-1.49,9.73-3.04,13.49l-21.48-4.01c-1.13-4.29-1.73-9.31-2.31-14.27Zm68.13-39.97c-1.67-16.68-5.53-24.09-10.29-27.42v-2.57l-.19-.13c-5.69-3.83-12.64-3.76-18.77-3.69-.67,0-1.34.01-1.98.01-.29,0-.39.02-.43,2.4-3.7-1.34-4.13-2.61-4.5-3.74-.74-2.27-1.23-3.77-17.72-3.8h-1.03c-16.54.03-17.03,1.53-17.77,3.8-.39,1.18-.82,2.52-5.04,3.93-2.66.89-5.61.94-8.47.99-9.65.18-19.63.36-22.66,30.21-2.42,23.86-1.69,35.99,2.44,40.56,1.41,1.56,3.27,2.31,5.69,2.31,3.41,0,5.3-5.12,7.49-11.04,3.15-8.51,6.71-18.16,15.54-15.96,3.83.96,5.92,4.67,7.26,9.71l31.6,1.66c1.31-5.88,3.43-10.31,7.66-11.37,8.82-2.21,12.39,7.44,15.54,15.96,2.19,5.92,4.08,11.04,7.49,11.04,2.42,0,4.27-.75,5.67-2.3,4.12-4.55,4.85-16.68,2.46-40.58Z"/>
    </clipPath>
  </defs>
  <g id="Background_controller" data-name="Background controller">
    <path id="LButton" class="cls-7" d="m40.85,27.05c-6.38-.01-14.3-.57-20.52,3.61v4.09h20.56s-.03-7.7-.04-7.7Z"/>
    <path id="base" class="cls-8" d="m118.01,60.46c-3.86-38.55-19.28-26.99-30.84-30.84-11.49-3.83,3.66-7.66-22.62-7.71h0s-1.03,0-1.03,0h0c-26.35.04-11.18,3.88-22.67,7.71-11.57,3.86-26.93-7.71-30.84,30.84-3.53,34.73,0,42.41,7.71,42.41s7.71-30.84,23.13-26.99c15.3,3.82,4.04,49.38,22.67,50.11h0s1.03,0,1.03,0h0c18.55-.83,7.34-46.3,22.62-50.12,15.42-3.86,15.42,26.99,23.13,26.99s11.18-7.67,7.71-42.41Z"/>
    <circle id="StickBase" class="cls-14" cx="64.04" cy="82.31" r="10.28"/>
    <circle id="Stick" class="cls-12" cx="64.04" cy="82.31" r="6.43"/>
  </g>
  <g id="Snek">
    <g id="Tongue">
      <line class="cls-11" x1="35.2" y1="8.29" x2="38.34" y2="11.43"/>
      <line class="cls-11" x1="35.2" y1="14.58" x2="38.34" y2="11.43"/>
      <line class="cls-11" x1="46.72" y1="11.43" x2="38.34" y2="11.43"/>
    </g>
    <path id="Body" class="cls-1" d="m77.12,96.35c-6.46-3.07-13.28-3.8-19.97-5.66-3.27-1.02-7.1-1.76-9.15-4.39-.1-.18-.14-.33-.16-.49.02-.05.07-.17.14-.32.13-.27.33-.62.56-.98,11.69-16.62,47.87-43.34,46.6-64.63-.48-9.11-8.92-14.55-16.86-16.22-5.16-1.21-10.02-1.54-14.79-1.66h0s-13.62,0-13.62,0c-2.89,0-5.24,2.35-5.24,5.24,0,5.21,4.22,9.43,9.43,9.43h9.42s.02,0,.03,0c4.14-.14,8.25-.04,11.83.6,2.47.41,5.34,1.31,6.54,2.86,1.87,4.71-4.19,13.56-7.1,17.96-8.68,12.5-19.97,23.85-29.56,35.94-2.79,3.89-7.26,8.8-5.43,14.25,3.19,8.77,14.64,9.44,22.34,11.01,3.84.83,13.43,1.7,15.09,5.24.05.21.1.44.07.74-.01.21.03.08.03.14.03.07-.48.49-1.25.76-3.65,1.17-8.4,1.07-12.45,1.26-3.47.15-7.06.18-10.55,1.15-1.47.45-2.89,1.05-3.96,2.42-2.27,2.81-.21,6.94,2.32,8.56,6.08,4.08,13.54,4.37,20.45,4.33,1.75-.06,1.74-2.67,0-2.72-4.72-.01-18.91-1.69-19.62-7.21.12-.59.9-.82,1.96-1.11,7.44-1.83,22.82,2.38,27.91-3.99,3.25-4.95-.35-10.45-5.01-12.5Z"/>
    <g class="cls-17">
      <path id="Chin" class="cls-6" d="m40.86,11.96h30.01c.55,0,1,.45,1,1v.24c0,2.21-1.79,4-4,4h-27.01c-1.1,0-2-.9-2-2v-1.24c0-1.1.9-2,2-2Z"/>
    </g>
    <path id="Stroke" class="cls-5" d="m63.43,3.05h.04c4.24.11,9.29.39,14.6,1.64,7.11,1.49,15.57,6.38,16.03,15.26.84,14.17-15.57,30.96-30.06,45.77-6.51,6.65-12.65,12.94-16.38,18.24-.25.39-.47.78-.6,1.05-.08.15-.13.28-.17.37l-.13.29.05.31c.03.2.09.5.28.84l.04.07.05.07c1.94,2.49,5.23,3.45,8.13,4.29.52.15,1.03.3,1.56.46,2.18.6,4.4,1.1,6.54,1.57,4.62,1.02,8.98,1.99,13.28,4.03,2.6,1.15,4.66,3.35,5.37,5.75.53,1.81.27,3.55-.78,5.18-2.34,2.88-7.3,3.27-11.84,3.27-1.61,0-3.28-.06-4.89-.11-1.61-.05-3.13-.11-4.61-.11-2.58,0-4.47.17-5.98.54-1.15.31-2.46.66-2.71,1.91l-.03.17.02.17c.85,6.71,16.51,8.12,20.63,8.13.09,0,.28,0,.29.31,0,.3-.2.31-.26.31-.35,0-.69,0-1.04,0-6.11,0-13.11-.32-18.84-4.17-1.37-.88-2.51-2.59-2.76-4.17-.18-1.1.05-2.06.7-2.86.93-1.18,2.21-1.69,3.42-2.06,2.95-.82,6.05-.94,9.05-1.06.42-.02.85-.03,1.27-.05.77-.04,1.57-.06,2.38-.09,3.56-.11,7.25-.22,10.35-1.22.56-.19,1.58-.67,1.86-1.28l.19-.43-.09-.23v-.25s-.02-.03-.02-.03c-.01-.26-.06-.48-.11-.67l-.02-.1-.04-.1c-1.58-3.37-8.28-4.51-13.17-5.34-1.04-.18-1.95-.33-2.66-.48-1.1-.23-2.25-.43-3.48-.64-7.29-1.28-15.55-2.74-18.08-9.68-1.44-4.28,1.57-8.3,4.22-11.86.37-.5.73-.98,1.03-1.4,3.75-4.73,7.84-9.43,11.8-13.97,6.15-7.07,12.5-14.38,17.82-22.04l.34-.52c3.32-5,8.87-13.37,6.86-18.41l-.05-.14-.09-.12c-1.58-2.06-5.19-2.92-7.19-3.26-2.53-.45-5.45-.67-8.92-.67-.98,0-2.02.02-3.1.05h0s-.02,0-.02,0h-9.42c-4.62,0-8.38-3.76-8.38-8.38,0-2.31,1.88-4.19,4.19-4.19h13.56m.06-1.05h-13.62c-2.89,0-5.24,2.35-5.24,5.24,0,5.21,4.22,9.43,9.43,9.43h9.42s0,0,0,0c0,0,.02,0,.03,0,0,0,0,0,0,0,1.04-.03,2.07-.05,3.1-.05,3.07,0,6.05.18,8.73.66,2.47.41,5.34,1.31,6.54,2.86,1.87,4.71-4.19,13.56-7.1,17.96-8.68,12.5-19.97,23.85-29.56,35.94-2.79,3.89-7.26,8.8-5.43,14.25,3.19,8.77,14.64,9.44,22.34,11.01,3.84.83,13.43,1.7,15.09,5.24.05.21.1.44.07.74,0,.11,0,.13,0,.13,0,0,0,0,.01,0s0,0,0,.02c.03.07-.48.49-1.25.76-3.65,1.17-8.4,1.07-12.45,1.26-3.47.15-7.06.18-10.55,1.15-1.47.45-2.89,1.05-3.96,2.42-2.27,2.81-.21,6.94,2.32,8.56,5.77,3.87,12.79,4.33,19.4,4.33.35,0,.7,0,1.05,0,1.75-.06,1.74-2.67,0-2.72-4.72-.01-18.91-1.69-19.62-7.21.12-.59.9-.82,1.96-1.11,1.6-.39,3.56-.51,5.71-.51,2.97,0,6.3.22,9.5.22,5.27,0,10.2-.59,12.69-3.7,3.25-4.95-.35-10.45-5.01-12.5-6.46-3.07-13.28-3.8-19.97-5.66-3.27-1.02-7.1-1.76-9.15-4.39-.1-.18-.14-.33-.16-.49.02-.05.07-.17.14-.32.13-.27.33-.62.56-.98,11.69-16.62,47.87-43.34,46.6-64.63-.48-9.11-8.92-14.55-16.86-16.22-5.16-1.21-10.02-1.54-14.79-1.66h0Z"/>
    <circle id="Eye" class="cls-3" cx="50.97" cy="8.06" r="1.34"/>
  </g>
  <g id="Foreground_controller" data-name="Foreground controller">
    <g class="cls-16">
      <g id="Controller">
        <path id="RButton" class="cls-7" d="m87.2,27.05c6.38-.01,14.3-.57,20.52,3.61v4.09h-20.56s.03-7.7.04-7.7Z"/>
        <path id="base-2" data-name="base" class="cls-8" d="m118.01,60.46c-3.86-38.55-19.28-26.99-30.84-30.84-11.49-3.83,3.66-7.66-22.62-7.71h0s-1.03,0-1.03,0h0c-26.35.04-11.18,3.88-22.67,7.71-11.57,3.86-26.93-7.71-30.84,30.84-3.53,34.73,0,42.41,7.71,42.41s7.71-30.84,23.13-26.99c15.3,3.82,4.04,49.38,22.67,50.11h0s1.03,0,1.03,0h0c18.55-.83,7.34-46.3,22.62-50.12,15.42-3.86,15.42,26.99,23.13,26.99s11.18-7.67,7.71-42.41Z"/>
        <circle id="StickBase-2" data-name="StickBase" class="cls-14" cx="64.04" cy="82.31" r="10.28"/>
        <polygon id="dpad" class="cls-2" points="26.16 53.37 26.16 46.9 32.53 46.9 32.53 53.37 38.91 53.37 38.91 59.84 32.53 59.84 32.53 66.32 26.16 66.32 26.16 59.84 19.78 59.84 19.78 53.37 26.16 53.37"/>
        <circle id="Stick-2" data-name="Stick" class="cls-12" cx="64.04" cy="82.31" r="6.43"/>
        <circle id="CLeft" class="cls-13" cx="94.88" cy="50.18" r="3.34"/>
        <circle id="CDown" class="cls-13" cx="102.59" cy="57.89" r="3.34"/>
        <circle id="CRight" class="cls-13" cx="110.3" cy="50.18" r="3.34"/>
        <circle id="CUp" class="cls-13" cx="102.59" cy="42.47" r="3.34"/>
        <circle id="Start" class="cls-9" cx="64.04" cy="59.18" r="5.14"/>
        <circle id="B" class="cls-15" cx="84.6" cy="57.89" r="4.37"/>
        <circle id="A" class="cls-10" cx="92.31" cy="66.89" r="4.37"/>
      </g>
    </g>
  </g>
</svg>